<?xml version="1.0" encoding="utf-8"?>
<!-- Generator: Adobe Illustrator 23.0.2, SVG Export Plug-In . SVG Version: 6.00 Build 0)  -->
<svg version="1.1" id="Layer_1" xmlns="http://www.w3.org/2000/svg" xmlns:xlink="http://www.w3.org/1999/xlink" x="0px" y="0px"
	 viewBox="0 0 233 233" style="enable-background:new 0 0 233 233;" xml:space="preserve">
<style type="text/css">
	.st0{fill:#fff;}
</style>
<g>
	<!-- <circle class="st0" cx="116.2" cy="116.2" r="110"/> -->
	<g>
		<!-- <path d="M116.2,51.3c35.7,0,64.8,29.1,64.8,64.8S151.9,181,116.2,181s-64.8-29.1-64.8-64.8S80.5,51.3,116.2,51.3 M116.2,40.8
			c-41.6,0-75.4,33.8-75.4,75.4s33.8,75.4,75.4,75.4s75.4-33.8,75.4-75.4S157.8,40.8,116.2,40.8L116.2,40.8z"/> -->
		<path d="M154.4,94.7l-50.1,50.1c-1.1,1.1-2.4,1.5-3.9,1.5c-1.4,0-2.9-0.5-3.9-1.5l-18.4-18.4c-2-2-2-5.3,0-7.2
			c1.1-1.1,2.3-1.5,3.6-1.5c1.4,0,2.7,0.5,3.6,1.5l15.1,15.1l46.7-46.7c1.1-1.1,2.3-1.5,3.6-1.5s2.7,0.5,3.6,1.5
			C156.3,89.5,156.3,92.8,154.4,94.7z"/>
	</g>
</g>
</svg>
